# Hierarchical Translation and Rotation (.htr) file
# Generated by EVaRT
[Header]
FileType htr
DataType HTRS
FileVersion 1
NumSegments 23
NumFrames 7
DataFrameRate 120
EulerRotationOrder ZYX
CalibrationUnits mm
RotationUnits Degrees
GlobalAxisofGravity Y
BoneLengthAxis Y
ScaleFactor 1
[SegmentNames&Hierarchy]
#CHILD            PARENT
DaveRoot          GLOBAL
Spine1            DaveRoot
Spine2            Spine1
Spine3            Spine2
Spine4            Spine3
Neck              Spine4
Head              Neck
LClavicle         Spine4
LUpperArm         LClavicle
LLowerArm         LUpperArm
LHand             LLowerArm
RClavicle         Spine4
RUpperArm         RClavicle
RLowerArm         RUpperArm
RHand             RLowerArm
RUpperLeg         DaveRoot
RLowerLeg         RUpperLeg
RFoot             RLowerLeg
RToes             RFoot
LUpperLeg         DaveRoot
LLowerLeg         LUpperLeg
LFoot             LLowerLeg
LToes             LFoot
[BasePosition]
#SegmentName      Tx   Ty   Tz   Rx   Ry   Rz   BoneLength
DaveRoot          209.518790	1014.822220	-351.309218	15.931515	2.618173	-0.612188	100.000000
Spine1            0.000000	100.000000	0.000000	-16.793488	0.293500	-0.473802	100.000000
Spine2            0.000000	100.000000	0.000000	4.672625	0.349043	-0.357343	100.000000
Spine3            0.000000	100.000000	0.000000	10.998894	0.386292	-0.316706	100.000000
Spine4            0.000000	100.000000	0.000000	12.138707	1.462162	1.217268	100.000000
Neck              0.000000	100.000000	0.000000	12.810480	14.955418	1.620949	80.000000
Head              0.000000	80.000000	0.000000	-44.031424	-2.973179	-2.367844	200.000000
LClavicle         0.000000	100.000000	0.000000	-0.941684	-2.086145	-99.536471	200.000000
LUpperArm         0.000000	200.000000	0.000000	10.837043	12.737179	14.309854	300.000000
LLowerArm         0.000000	300.000000	0.000000	2.090205	2.175812	1.895763	200.000000
LHand             0.000000	200.000000	0.000000	-1.396534	-1.768569	8.793625	120.000000
RClavicle         0.000000	100.000000	0.000000	1.262055	-3.879913	108.124298	200.000000
RUpperArm         0.000000	200.000000	0.000000	10.866823	4.985308	-18.992585	300.000000
RLowerArm         0.000000	300.000000	0.000000	5.968673	-3.682026	-7.348670	200.000000
RHand             0.000000	200.000000	0.000000	-1.057110	-1.690862	-7.465634	120.000000
RUpperLeg         -115.911102	-10.000000	31.058285	24.909801	27.531946	-169.439912	530.000000
RLowerLeg         0.000000	530.000000	0.000000	-7.321572	0.479387	-2.520024	460.000000
RFoot             0.000000	460.000000	0.000000	82.352420	-1.863170	1.930421	130.000000
RToes             0.000000	130.000000	0.000000	17.737744	0.005479	-0.002881	100.000000
LUpperLeg         115.911102	-10.000000	31.058285	23.717246	9.590578	-171.144790	530.000000
LLowerLeg         0.000000	530.000000	0.000000	-5.150575	-3.275937	3.046484	460.000000
LFoot             0.000000	460.000000	0.000000	77.933010	-13.262104	9.769004	130.000000
LToes             0.000000	130.000000	0.000000	27.000770	-0.000000	-0.000086	100.000000
#Beginning of Data.
[DaveRoot]
#Fr	Tx	Ty	Tz	Rx	Ry	Rz	SF
1255	51.208177	25.262955	377.422670	-54.531001	67.066189	-67.303802	1.000000	
1256	62.951172	28.811730	379.632226	-54.629853	66.889651	-68.185283	1.000000	
1257	74.329838	31.363393	382.226919	-56.356574	66.921055	-69.282044	1.000000	
1258	86.294317	34.027195	384.419757	-56.407025	66.830685	-70.133899	1.000000	
1259	97.987016	35.685905	386.913785	-58.155717	66.914526	-71.160493	1.000000	
1260	110.290877	37.197976	389.017895	-58.094983	66.909353	-71.847441	1.000000	
1261	122.437903	37.845510	391.374069	-59.817495	67.038303	-72.760694	1.000000	
[Spine1]
#Fr	Tx	Ty	Tz	Rx	Ry	Rz	SF
1255	0.000000	0.000000	0.000000	3.537206	0.327569	-3.168087	1.000000	
1256	0.000000	0.000000	0.000000	2.441813	0.374486	-2.884335	1.000000	
1257	0.000000	0.000000	0.000000	3.427949	-0.050851	-2.821652	1.000000	
1258	0.000000	0.000000	0.000000	2.263127	0.012708	-2.588478	1.000000	
1259	0.000000	0.000000	0.000000	3.291672	-0.376255	-2.536319	1.000000	
1260	0.000000	0.000000	0.000000	2.084616	-0.299724	-2.365737	1.000000	
1261	0.000000	0.000000	0.000000	3.131095	-0.663388	-2.323549	1.000000	
[Spine2]
#Fr	Tx	Ty	Tz	Rx	Ry	Rz	SF
1255	0.000000	0.000000	0.000000	3.537206	0.327569	-3.168087	1.000000	
1256	0.000000	0.000000	0.000000	2.441813	0.374486	-2.884335	1.000000	
1257	0.000000	0.000000	0.000000	3.427949	-0.050851	-2.821652	1.000000	
1258	0.000000	0.000000	0.000000	2.263127	0.012708	-2.588478	1.000000	
1259	0.000000	0.000000	0.000000	3.291672	-0.376255	-2.536319	1.000000	
1260	0.000000	0.000000	0.000000	2.084616	-0.299724	-2.365737	1.000000	
1261	0.000000	0.000000	0.000000	3.131095	-0.663388	-2.323549	1.000000	
[Spine3]
#Fr	Tx	Ty	Tz	Rx	Ry	Rz	SF
1255	0.000000	0.000000	0.000000	3.537206	0.327569	-3.168087	1.000000	
1256	0.000000	0.000000	0.000000	2.441813	0.374486	-2.884335	1.000000	
1257	0.000000	0.000000	0.000000	3.427949	-0.050851	-2.821652	1.000000	
1258	0.000000	0.000000	0.000000	2.263127	0.012708	-2.588478	1.000000	
1259	0.000000	0.000000	0.000000	3.291672	-0.376255	-2.536319	1.000000	
1260	0.000000	0.000000	0.000000	2.084616	-0.299724	-2.365737	1.000000	
1261	0.000000	0.000000	0.000000	3.131095	-0.663388	-2.323549	1.000000	
[Spine4]
#Fr	Tx	Ty	Tz	Rx	Ry	Rz	SF
1255	0.000000	0.000000	0.000000	3.537206	0.327569	-3.168087	1.000000	
1256	0.000000	0.000000	0.000000	2.441813	0.374486	-2.884335	1.000000	
1257	0.000000	0.000000	0.000000	3.427949	-0.050851	-2.821652	1.000000	
1258	0.000000	0.000000	0.000000	2.263127	0.012708	-2.588478	1.000000	
1259	0.000000	0.000000	0.000000	3.291672	-0.376255	-2.536319	1.000000	
1260	0.000000	0.000000	0.000000	2.084616	-0.299724	-2.365737	1.000000	
1261	0.000000	0.000000	0.000000	3.131095	-0.663388	-2.323549	1.000000	
[Neck]
#Fr	Tx	Ty	Tz	Rx	Ry	Rz	SF
1255	0.000000	0.000000	0.000000	4.927104	-6.027965	8.512967	1.000000	
1256	0.000000	0.000000	0.000000	8.508654	-7.132046	9.009578	1.000000	
1257	0.000000	0.000000	0.000000	4.564669	-6.586687	8.569568	1.000000	
1258	0.000000	0.000000	0.000000	8.360039	-7.758978	9.119411	1.000000	
1259	0.000000	0.000000	0.000000	4.301846	-7.261292	8.738991	1.000000	
1260	0.000000	0.000000	0.000000	8.264027	-8.468503	9.302477	1.000000	
1261	0.000000	0.000000	0.000000	4.159389	-8.000408	8.966887	1.000000	
[Head]
#Fr	Tx	Ty	Tz	Rx	Ry	Rz	SF
1255	0.000000	0.000000	0.000000	4.927104	-6.027965	8.512967	1.000000	
1256	0.000000	0.000000	0.000000	8.508654	-7.132046	9.009578	1.000000	
1257	0.000000	0.000000	0.000000	4.564669	-6.586687	8.569568	1.000000	
1258	0.000000	0.000000	0.000000	8.360039	-7.758978	9.119411	1.000000	
1259	0.000000	0.000000	0.000000	4.301846	-7.261292	8.738991	1.000000	
1260	0.000000	0.000000	0.000000	8.264027	-8.468503	9.302477	1.000000	
1261	0.000000	0.000000	0.000000	4.159389	-8.000408	8.966887	1.000000	
[LClavicle]
#Fr	Tx	Ty	Tz	Rx	Ry	Rz	SF
1255	0.000000	0.000000	0.000000	2.788541	0.207830	-9.176873	1.000000	
1256	0.000000	0.000000	0.000000	11.924310	0.705736	-8.255918	1.000000	
1257	0.000000	0.000000	0.000000	2.462845	0.166085	-8.773451	1.000000	
1258	0.000000	0.000000	0.000000	12.114948	0.602597	-7.722849	1.000000	
1259	0.000000	0.000000	0.000000	2.459831	0.144532	-8.278454	1.000000	
1260	0.000000	0.000000	0.000000	12.441823	0.457170	-6.989045	1.000000	
1261	0.000000	0.000000	0.000000	2.616532	0.125557	-7.663243	1.000000	
[LUpperArm]
#Fr	Tx	Ty	Tz	Rx	Ry	Rz	SF
1255	0.000000	0.000000	0.000000	47.473751	7.581288	-37.492879	1.000000	
1256	0.000000	0.000000	0.000000	27.142232	7.245445	-40.614572	1.000000	
1257	0.000000	0.000000	0.000000	48.338047	4.267322	-38.943585	1.000000	
1258	0.000000	0.000000	0.000000	28.178417	3.177072	-41.768982	1.000000	
1259	0.000000	0.000000	0.000000	49.031828	0.962837	-40.321444	1.000000	
1260	0.000000	0.000000	0.000000	29.437875	-1.206629	-43.577529	1.000000	
1261	0.000000	0.000000	0.000000	49.762363	-1.824201	-41.275188	1.000000	
[LLowerArm]
#Fr	Tx	Ty	Tz	Rx	Ry	Rz	SF
1255	0.000000	0.000000	0.000000	-0.214037	-0.000000	0.000000	1.000000	
1256	0.000000	0.000000	0.000000	28.720825	-0.000000	0.000000	1.000000	
1257	0.000000	0.000000	0.000000	5.262006	-0.000000	0.000000	1.000000	
1258	0.000000	0.000000	0.000000	32.062669	-0.000000	0.000000	1.000000	
1259	0.000000	0.000000	0.000000	10.802662	-0.000000	0.000000	1.000000	
1260	0.000000	0.000000	0.000000	35.196548	-0.000000	0.000000	1.000000	
1261	0.000000	0.000000	0.000000	15.833578	-0.000000	0.000000	1.000000	
[LHand]
#Fr	Tx	Ty	Tz	Rx	Ry	Rz	SF
1255	0.000000	0.000000	0.000000	16.574019	0.000000	-0.000000	1.000000	
1256	0.000000	0.000000	0.000000	-0.312455	0.000000	-0.000000	1.000000	
1257	0.000000	0.000000	0.000000	16.279321	0.000000	-0.000000	1.000000	
1258	0.000000	0.000000	0.000000	1.618938	0.000000	-0.000000	1.000000	
1259	0.000000	0.000000	0.000000	16.415420	0.000000	-0.000000	1.000000	
1260	0.000000	0.000000	0.000000	3.237641	0.000000	-0.000000	1.000000	
1261	0.000000	0.000000	0.000000	16.780461	0.000000	-0.000000	1.000000	
[RClavicle]
#Fr	Tx	Ty	Tz	Rx	Ry	Rz	SF
1255	0.000000	0.000000	0.000000	2.452638	-0.281851	6.226280	1.000000	
1256	0.000000	0.000000	0.000000	5.820562	-0.584388	5.388359	1.000000	
1257	0.000000	0.000000	0.000000	2.190194	-0.258147	6.393638	1.000000	
1258	0.000000	0.000000	0.000000	5.834290	-0.603230	5.557419	1.000000	
1259	0.000000	0.000000	0.000000	1.852116	-0.221706	6.498443	1.000000	
1260	0.000000	0.000000	0.000000	5.767287	-0.602663	5.620194	1.000000	
1261	0.000000	0.000000	0.000000	1.582200	-0.189838	6.514841	1.000000	
[RUpperArm]
#Fr	Tx	Ty	Tz	Rx	Ry	Rz	SF
1255	0.000000	0.000000	0.000000	30.667968	-27.429913	37.925553	1.000000	
1256	0.000000	0.000000	0.000000	18.120975	-19.963000	48.117246	1.000000	
1257	0.000000	0.000000	0.000000	30.216081	-28.260835	37.965636	1.000000	
1258	0.000000	0.000000	0.000000	15.663103	-17.318612	49.919291	1.000000	
1259	0.000000	0.000000	0.000000	29.260922	-28.667768	38.669413	1.000000	
1260	0.000000	0.000000	0.000000	13.249109	-14.639295	51.781615	1.000000	
1261	0.000000	0.000000	0.000000	27.587325	-28.715024	40.096698	1.000000	
[RLowerArm]
#Fr	Tx	Ty	Tz	Rx	Ry	Rz	SF
1255	0.000000	0.000000	0.000000	9.028590	-0.000000	-0.000000	1.000000	
1256	0.000000	0.000000	0.000000	20.674724	-0.000000	-0.000000	1.000000	
1257	0.000000	0.000000	0.000000	7.189636	-0.000000	-0.000000	1.000000	
1258	0.000000	0.000000	0.000000	23.404023	-0.000000	-0.000000	1.000000	
1259	0.000000	0.000000	0.000000	5.604879	-0.000000	-0.000000	1.000000	
1260	0.000000	0.000000	0.000000	25.928083	-0.000000	-0.000000	1.000000	
1261	0.000000	0.000000	0.000000	4.812764	-0.000000	-0.000000	1.000000	
[RHand]
#Fr	Tx	Ty	Tz	Rx	Ry	Rz	SF
1255	0.000000	0.000000	0.000000	10.116375	2.860236	1.256878	1.000000	
1256	0.000000	0.000000	0.000000	-1.956880	-0.460229	2.905968	1.000000	
1257	0.000000	0.000000	0.000000	13.295225	3.745801	2.078942	1.000000	
1258	0.000000	0.000000	0.000000	-4.871181	-0.637492	4.746948	1.000000	
1259	0.000000	0.000000	0.000000	16.334666	4.246788	2.603412	1.000000	
1260	0.000000	0.000000	0.000000	-7.728138	-0.784859	6.373702	1.000000	
1261	0.000000	0.000000	0.000000	18.312520	4.650453	2.838093	1.000000	
[RUpperLeg]
#Fr	Tx	Ty	Tz	Rx	Ry	Rz	SF
1255	0.000000	0.000000	0.000000	19.279248	-22.867207	4.882678	1.000000	
1256	0.000000	0.000000	0.000000	19.714742	-22.626000	5.265502	1.000000	
1257	0.000000	0.000000	0.000000	18.805735	-21.994793	5.274232	1.000000	
1258	0.000000	0.000000	0.000000	19.085760	-21.397328	5.628399	1.000000	
1259	0.000000	0.000000	0.000000	17.919731	-20.395712	5.589315	1.000000	
1260	0.000000	0.000000	0.000000	18.046346	-19.443295	5.921490	1.000000	
1261	0.000000	0.000000	0.000000	16.680854	-18.042215	5.855902	1.000000	
[RLowerLeg]
#Fr	Tx	Ty	Tz	Rx	Ry	Rz	SF
1255	0.000000	0.000000	0.000000	-43.856004	-0.000000	-0.000000	1.000000	
1256	0.000000	0.000000	0.000000	-40.368320	-0.000000	-0.000000	1.000000	
1257	0.000000	0.000000	0.000000	-36.782158	-0.000000	-0.000000	1.000000	
1258	0.000000	0.000000	0.000000	-33.027112	-0.000000	-0.000000	1.000000	
1259	0.000000	0.000000	0.000000	-29.201289	0.000000	-0.000000	1.000000	
1260	0.000000	0.000000	0.000000	-25.361254	-0.000000	-0.000000	1.000000	
1261	0.000000	0.000000	0.000000	-21.483849	-0.000000	-0.000000	1.000000	
[RFoot]
#Fr	Tx	Ty	Tz	Rx	Ry	Rz	SF
1255	0.000000	0.000000	0.000000	-5.994752	-6.529019	-23.288300	1.000000	
1256	0.000000	0.000000	0.000000	-6.454480	-6.116999	-24.022381	1.000000	
1257	0.000000	0.000000	0.000000	-6.927925	-5.733710	-24.527774	1.000000	
1258	0.000000	0.000000	0.000000	-7.563306	-5.400970	-24.632216	1.000000	
1259	0.000000	0.000000	0.000000	-8.308351	-5.077941	-24.309606	1.000000	
1260	0.000000	0.000000	0.000000	-9.286676	-4.750721	-23.443318	1.000000	
1261	0.000000	0.000000	0.000000	-10.528447	-4.377277	-22.048927	1.000000	
[RToes]
#Fr	Tx	Ty	Tz	Rx	Ry	Rz	SF
1255	0.000000	0.000000	0.000000	1.851834	0.000000	0.000000	1.000000	
1256	0.000000	0.000000	0.000000	1.431275	0.000000	0.000000	1.000000	
1257	0.000000	0.000000	0.000000	0.899566	0.000000	0.000000	1.000000	
1258	0.000000	0.000000	0.000000	0.280904	0.000000	0.000000	1.000000	
1259	0.000000	0.000000	0.000000	-0.329616	0.000000	0.000000	1.000000	
1260	0.000000	0.000000	0.000000	-0.876836	-0.000000	0.000000	1.000000	
1261	0.000000	0.000000	0.000000	-1.290255	0.000000	0.000000	1.000000	
[LUpperLeg]
#Fr	Tx	Ty	Tz	Rx	Ry	Rz	SF
1255	0.000000	0.000000	0.000000	-2.464530	-0.945235	-9.143284	1.000000	
1256	0.000000	0.000000	0.000000	-2.561973	-1.222121	-8.702765	1.000000	
1257	0.000000	0.000000	0.000000	-3.953803	-1.391480	-8.729683	1.000000	
1258	0.000000	0.000000	0.000000	-3.845264	-1.558353	-8.391812	1.000000	
1259	0.000000	0.000000	0.000000	-5.160457	-1.601575	-8.529326	1.000000	
1260	0.000000	0.000000	0.000000	-4.905461	-1.700688	-8.328996	1.000000	
1261	0.000000	0.000000	0.000000	-6.159312	-1.651182	-8.580888	1.000000	
[LLowerLeg]
#Fr	Tx	Ty	Tz	Rx	Ry	Rz	SF
1255	0.000000	0.000000	0.000000	-15.989130	0.000000	0.000000	1.000000	
1256	0.000000	0.000000	0.000000	-15.673390	0.000000	0.000000	1.000000	
1257	0.000000	0.000000	0.000000	-15.454703	-0.000000	-0.000000	1.000000	
1258	0.000000	0.000000	0.000000	-15.515518	-0.000000	-0.000000	1.000000	
1259	0.000000	0.000000	0.000000	-15.648796	0.000000	0.000000	1.000000	
1260	0.000000	0.000000	0.000000	-16.109312	0.000000	0.000000	1.000000	
1261	0.000000	0.000000	0.000000	-16.570801	0.000000	0.000000	1.000000	
[LFoot]
#Fr	Tx	Ty	Tz	Rx	Ry	Rz	SF
1255	0.000000	0.000000	0.000000	5.619259	7.796628	-12.830546	1.000000	
1256	0.000000	0.000000	0.000000	4.935941	8.286110	-13.297078	1.000000	
1257	0.000000	0.000000	0.000000	4.297334	8.537553	-13.771679	1.000000	
1258	0.000000	0.000000	0.000000	3.868165	8.917723	-14.039513	1.000000	
1259	0.000000	0.000000	0.000000	3.441068	9.094320	-14.258149	1.000000	
1260	0.000000	0.000000	0.000000	3.237825	9.471088	-14.271422	1.000000	
1261	0.000000	0.000000	0.000000	2.961691	9.622005	-14.240155	1.000000	
[LToes]
#Fr	Tx	Ty	Tz	Rx	Ry	Rz	SF
1255	0.000000	0.000000	0.000000	3.136965	-0.000000	-0.000000	1.000000	
1256	0.000000	0.000000	0.000000	4.291607	-0.000000	-0.000000	1.000000	
1257	0.000000	0.000000	0.000000	5.166303	-0.000000	-0.000000	1.000000	
1258	0.000000	0.000000	0.000000	6.031714	-0.000000	-0.000000	1.000000	
1259	0.000000	0.000000	0.000000	6.696436	-0.000000	-0.000000	1.000000	
1260	0.000000	0.000000	0.000000	7.467899	-0.000000	-0.000000	1.000000	
1261	0.000000	0.000000	0.000000	8.110750	-0.000000	-0.000000	1.000000	
